<?xml version="1.0" encoding="iso-8859-1"?>
<!-- Generator: Adobe Illustrator 21.0.0, SVG Export Plug-In . SVG Version: 6.00 Build 0)  -->
<svg xmlns="http://www.w3.org/2000/svg"
	xmlns:xlink="http://www.w3.org/1999/xlink" version="1.1" id="Capa_1" x="0px" y="0px" viewBox="0 0 512 512" style="enable-background:new 0 0 512 512;" xml:space="preserve" width="512" height="512">
	<g>
		<g>
			<path style="fill:#914509;" d="M288.212,365.856c-1.552,0-3.12-0.467-4.48-1.44c-3.464-2.478-4.264-7.295-1.786-10.759    l13.172-18.416c0.049-0.068,0.098-0.135,0.15-0.201c9.57-12.503,24.684-19.967,40.43-19.967h66.813    c10.642,0,28.871-20.273,33.835-32.496c1.604-3.945,6.098-5.846,10.048-4.244c3.945,1.602,5.846,6.1,4.244,10.047    c-5.805,14.295-28.054,42.118-48.127,42.118h-66.813c-10.936,0-21.434,5.166-28.11,13.824l-13.095,18.309    C292.986,364.735,290.617,365.856,288.212,365.856z"/>
			<path style="fill:#914509;" d="M122.315,266.113c-1.364,0-2.745-0.362-3.997-1.122L95.093,250.88    c-16.733-10.077-27.144-28.499-27.144-48.062v-40.735c0-4.259,3.453-7.712,7.712-7.712c4.259,0,7.712,3.453,7.712,7.712v40.735    c0,14.186,7.549,27.545,19.703,34.864l23.251,14.126c3.64,2.212,4.799,6.955,2.587,10.595    C127.463,264.793,124.92,266.113,122.315,266.113z"/>
		</g>
		<g>
			<g>
				<path style="fill:#914509;" d="M313.712,132.253L313.712,132.253c-10.664,31.03-39.855,51.865-72.666,51.865H188.95     c-41.648,0-75.411,33.763-75.411,75.411v0c0,35.425,24.658,66.075,59.262,73.661l0,0C190.434,337.056,203,352.675,203,370.727     v95.807l106.599,0l-7.554-77.491c-6.044-61.998-53.303-112.034-114.855-121.605l0,0c-11.983-1.863-20.289-12.951-18.709-24.975v0     c1.499-11.404,11.415-19.804,22.911-19.407l66.725,2.305c37.298,1.288,70.129-24.411,77.834-60.927l7.925-37.557L313.712,132.253     z"/>
			</g>
		</g>
		<path style="fill:#66330A;" d="M275.995,175.705h56.647c1.366-3.624,2.488-7.382,3.308-11.271l7.925-37.557l-30.163,5.376l0,0   C307.092,151.516,293.329,166.845,275.995,175.705z"/>
		<path style="fill:#66330A;" d="M187.189,267.438L187.189,267.438c-11.984-1.863-20.289-12.951-18.709-24.975v0   c0.192-1.464,0.528-2.877,0.984-4.23l-3.68-0.127c-11.495-0.397-21.412,8.003-22.911,19.407v0   c-1.58,12.024,6.725,23.111,18.709,24.974h0c61.552,9.571,108.811,59.607,114.855,121.605l6.087,62.441h27.074l-7.554-77.491   C296.001,327.046,248.742,277.009,187.189,267.438z"/>
		<path style="fill:#AD7A65;" d="M410.787,511.628H102.155c-12.11,0-21.926-9.817-21.926-21.926v-1.241   c0-12.11,9.817-21.926,21.926-21.926h308.632c12.11,0,21.926,9.817,21.926,21.926v1.241   C432.713,501.811,422.896,511.628,410.787,511.628z"/>
		<path style="fill:#9C6E5B;" d="M432.713,488.461c0-12.11-9.817-21.926-21.926-21.926h-21.559   c9.366,3.214,16.101,12.091,16.101,22.547c0,10.456-6.735,19.333-16.101,22.547h21.559c12.11,0,21.926-9.817,21.926-21.926V488.461   z"/>
		<path style="fill:#0A8C4B;" d="M464.922,112.859c0-23.914-19.386-43.3-43.3-43.3c-1.017,0-2.023,0.048-3.023,0.117   C415.5,50.221,398.65,35.35,378.323,35.35c-7.043,0-13.668,1.785-19.449,4.927c-4.961-22.814-25.259-39.904-49.56-39.904   c-28.017,0-50.729,22.712-50.729,50.729c0,0.484,0.023,0.963,0.037,1.443c-6.452-2.729-13.546-4.239-20.993-4.239   c-29.783,0-53.927,24.144-53.927,53.927s24.144,53.927,53.927,53.927h189.318v-0.338   C448.347,153.196,464.922,134.969,464.922,112.859z"/>
		<path style="fill:#08733D;" d="M464.922,112.859c0-23.914-19.386-43.3-43.3-43.3c-1.017,0-2.023,0.048-3.023,0.117   C415.5,50.221,398.65,35.35,378.323,35.35c-7.043,0-13.668,1.785-19.449,4.927c-4.96-22.814-25.259-39.904-49.56-39.904   c-14.209,0-27.046,5.849-36.256,15.262c1.783-0.183,3.585-0.3,5.417-0.3c19.031,0,35.708,10.059,45.014,25.15   c4.871,7.899,13.678,12.344,22.918,11.485c1.311-0.122,2.639-0.184,3.982-0.184c20.109,0,36.952,13.965,41.372,32.725   c0.408,1.733,1.939,2.926,3.719,2.925c0.011,0,0.021,0,0.032,0c24.921,0,45.123,20.202,45.123,45.123   c0,7.748-1.964,15.031-5.408,21.398C452.473,148.252,464.922,132.018,464.922,112.859z"/>
		<path style="fill:#0A8C4B;" d="M477.317,228.056c-1.688,0-3.346,0.127-4.969,0.36c0.001-0.12,0.009-0.239,0.009-0.36   c0-19.155-15.528-34.683-34.683-34.683c-17.499,0-31.964,12.962-34.335,29.808c-1.731-0.266-3.503-0.404-5.308-0.404   c-19.155,0-34.683,15.528-34.683,34.683c0,19.155,15.528,34.683,34.683,34.683c17.499,0,60.132,5.28,79.287,5.28   c19.155,0,34.683-15.528,34.683-34.683C512,243.584,496.472,228.056,477.317,228.056z"/>
		<path style="fill:#08733D;" d="M512,262.739c0-19.155-15.528-34.683-34.683-34.683c-1.688,0-3.346,0.127-4.969,0.36   c0.001-0.12,0.009-0.239,0.009-0.36c0-19.155-15.528-34.683-34.683-34.683c-13.423,0-25.053,7.631-30.816,18.786   c3.107-0.874,6.383-1.342,9.769-1.342c15.505,0,28.806,9.825,33.853,23.677c2.441,6.7,8.269,11.654,15.227,13.215   c15.936,3.575,28.124,17.806,28.124,35.16c0,3.945-0.644,7.737-1.817,11.289C503.819,288.624,512,276.64,512,262.739z"/>
		<path style="fill:#0A8C4B;" d="M34.683,106.469c1.688,0,3.346,0.127,4.969,0.36c-0.001-0.12-0.009-0.239-0.009-0.36   c0-19.155,15.528-34.683,34.683-34.683c17.499,0,31.964,12.962,34.335,29.808c1.731-0.266,3.503-0.404,5.308-0.404   c19.155,0,34.683,15.528,34.683,34.683c0,19.155-15.528,34.683-34.683,34.683c-17.499,0-60.132,5.28-79.287,5.28   C15.528,175.835,0,160.307,0,141.152S15.528,106.469,34.683,106.469z"/>
		<path style="fill:#08733D;" d="M148.653,135.872c0-19.155-15.528-34.683-34.683-34.683c-1.805,0-3.578,0.138-5.308,0.404   c-2.371-16.845-16.836-29.808-34.335-29.808c-14.399,0-26.747,8.776-31.992,21.27c4.433-1.926,9.317-3.009,14.46-3.009   c13.981,0,26.116,7.886,32.209,19.452c3.328,6.318,9.344,10.695,16.353,12.063c16.514,3.222,29.426,17.732,29.426,35.729   c0,2.329-0.244,4.597-0.663,6.804C142.915,157.803,148.653,147.511,148.653,135.872z"/>
	</g>















</svg>
